<?xml version="1.0" standalone="no"?>
<!DOCTYPE svg PUBLIC "-//W3C//DTD SVG 20010904//EN"
 "http://www.w3.org/TR/2001/REC-SVG-20010904/DTD/svg10.dtd">
<svg version="1.0" xmlns="http://www.w3.org/2000/svg"
 width="512.000000pt" height="512.000000pt" viewBox="0 0 512.000000 512.000000"
 preserveAspectRatio="xMidYMid meet">
<metadata>
Created by potrace 1.11, written by Peter Selinger 2001-2013
</metadata>
<g transform="translate(0.000000,512.000000) scale(0.100000,-0.100000)"
fill="#000000" stroke="none">
<path d="M3825 4223 c-27 -8 -66 -27 -86 -41 -43 -31 -110 -120 -122 -160 -12
-45 -15 -119 -5 -169 4 -27 11 -61 14 -78 2 -16 9 -43 14 -60 5 -16 12 -45 15
-64 3 -19 10 -42 15 -52 6 -10 10 -103 10 -208 l0 -191 -37 -1 c-21 -1 -43 -1
-48 0 -6 0 -24 -10 -40 -23 -29 -23 -30 -27 -33 -123 l-4 -99 -79 -79 c-88
-89 -82 -69 -80 -248 1 -81 17 -129 46 -141 9 -3 243 -6 519 -6 l503 0 27 25
c26 24 26 26 26 155 l0 131 -52 56 c-29 31 -66 68 -81 83 -27 24 -29 30 -29
109 0 47 -5 95 -11 108 -14 32 -56 53 -107 53 l-40 0 0 185 c0 153 3 195 19
247 37 120 62 261 57 318 -16 200 -215 331 -411 273z m335 -1223 l0 -40 -240
0 -240 0 0 40 0 40 240 0 240 0 0 -40z m128 -233 c24 -25 32 -43 35 -80 l3
-47 -400 2 -401 3 -1 45 c-1 38 3 50 30 77 l31 32 336 1 335 0 32 -33z"/>
<path d="M3226 2369 c-20 -24 -26 -41 -26 -80 l0 -49 -179 0 c-110 0 -182 4
-186 10 -11 17 -64 41 -100 44 -18 2 -55 -1 -82 -6 -26 -5 -57 -11 -68 -12
-58 -9 -103 -17 -125 -21 -166 -33 -223 -37 -293 -25 -40 7 -82 13 -94 15 -12
2 -34 6 -50 9 -15 3 -50 8 -78 12 -27 3 -53 8 -56 10 -3 1 -37 6 -75 10 -38 3
-78 8 -89 10 -44 10 -260 19 -420 18 -191 0 -304 -8 -450 -30 -91 -13 -130
-20 -235 -39 -53 -10 -97 -42 -119 -89 -18 -36 -21 -61 -21 -167 0 -110 3
-130 23 -169 12 -25 36 -53 54 -63 32 -18 182 -51 286 -62 32 -4 68 -8 80 -11
61 -12 225 -19 427 -18 225 0 351 8 475 28 17 2 50 7 75 11 101 15 124 19 255
42 66 11 131 9 275 -12 14 -2 50 -6 80 -10 30 -4 66 -8 80 -10 118 -17 150
-16 194 4 25 11 46 25 46 30 0 7 61 11 184 11 l184 0 72 -145 c41 -80 80 -151
88 -158 10 -8 61 -13 156 -14 78 -1 152 -2 166 -2 23 -1 27 -8 48 -100 31
-135 32 -136 187 -136 155 0 156 1 187 136 16 72 26 99 38 100 8 0 83 1 167 2
120 2 155 5 167 17 8 8 46 77 85 153 l70 138 1 287 c1 158 1 295 1 304 -1 10
-11 26 -23 37 -21 20 -34 20 -689 21 l-667 0 -26 -31z m1255 -144 c0 -8 1
-106 2 -218 l0 -203 -49 -102 -49 -102 -462 0 -463 0 -47 93 -48 92 -1 228 -1
227 558 0 c490 0 559 -2 560 -15z m-1281 -225 l0 -80 -160 0 -160 0 0 80 0 80
160 0 160 0 0 -80z m758 -600 c-9 -35 -14 -40 -39 -40 -23 0 -30 5 -35 28 -3
15 -7 33 -10 40 -2 8 11 12 45 12 l49 0 -10 -40z"/>
</g>
</svg>
